{"title":"The.Green.Hornet.2010.TS.XViD-T0XiC-iNK","uid":6108060,"size":1479901024,"categoryP":"video","categoryS":"movies","magnet":"?xt=urn:btih:e5c93f23d386fe006b207ef6602acb129c65f53d&amp;dn=The.Green.Hornet.2010.TS.XViD-T0XiC-iNK&amp;tr=udp%3A%2F%2Ftracker.openbittorrent.com%3A80&amp;tr=udp%3A%2F%2Fopen.demonii.com%3A1337&amp;tr=udp%3A%2F%2Ftracker.coppersurfer.tk%3A6969&amp;tr=udp%3A%2F%2Fexodus.desync.com%3A6969","seeders":7,"leechers":1,"uploader":".BONE.","files":4,"time":1295239907,"description":"::::::::::::::Enjoy:Another:Release:From:T0XiC::::::::::::::\n\n\n\nFile:: The.Green.Hornet.2010.TS.XViD-T0XiC-iNK\n\nVideo Source:: ....Team Serenity. Killin it, thx\n\nAudio Source:: ....own, thx matey\n\nLanguage::English\n\nIMDB::http://www.imdb.com/title/tt0990407/\n\n\n\nFollowing the death of his father, Britt Reid, heir to his father's large company,\n\nteams up with his late dad's assistant Kato to become a masked crime fighting team.\n\n\n\nSpecs::\n\n\n\nGeneral\n\n\n\nFormat : AVI\n\nFormat/Info : Audio Video Interleave\n\nFile size : 1.37 GiB\n\nDuration : 1h 51mn\n\nOverall bit rate : 1 761 Kbps\n\nWriting application : VirtualDubMod 1.5.10.2 (build 2540/release)\n\nWriting library : VirtualDubMod build 2540/release\n\n\n\nVideo\n\nID : 0\n\nFormat : MPEG-4 Visual\n\nFormat profile : Advanced Simple@L5\n\nFormat settings, BVOP : Yes\n\nFormat settings, QPel : No\n\nFormat settings, GMC : No warppoints\n\nFormat settings, Matrix : Default (H.263)\n\nMuxing mode : Packed bitstream\n\nCodec ID : XVID\n\nCodec ID/Hint : XviD\n\nDuration : 1h 51mn\n\nBit rate : 1 495 Kbps\n\nWidth : 720 pixels\n\nHeight : 306 pixels\n\nDisplay aspect ratio : 2.35:1\n\nFrame rate : 25.000 fps\n\nColor space : YUV\n\nChroma subsampling : 4:2:0\n\nBit depth : 8 bits\n\nScan type : Progressive\n\nBits/(Pixel*Frame) : 0.271\n\nStream size : 1.16 GiB (85%)\n\nWriting library : XviD 1.2.1 (UTC 2008-12-04)\n\n\n\nAudio\n\nID : 1\n\nFormat : MPEG Audio\n\nFormat version : Version 1\n\nFormat profile : Layer 3\n\nCodec ID : 55\n\nCodec ID/Hint : MP3\n\nDuration : 1h 51mn\n\nBit rate mode : Constant\n\nBit rate : 256 Kbps\n\nChannel(s) : 2 channels\n\nSampling rate : 44.1 KHz\n\nStream size : 204 MiB (15%)\n\nAlignment : Split accross interleaves\n\nInterleave, duration : 40 ms (1.00 video frame)\n\nInterleave, preload duration : 500 ms\n\n\n\n\n\n\n\nNOTES:: T0XiC-iNK brings you the first TS of Green Hornet. As always, Enjoy\n\n\n\n\n\n::Why Complain? Whats Free Is Free::\n\n\n\n::iNK is currently a free agent looking for work, if you would like iNK's touch, give me a email at: ...&lt;a class=&quot;__cf_email__&quot; href=&quot;/cdn-cgi/l/email-protection&quot; data-cfemail=&quot;99fdf0fef0edf8f5b7f0f7f2d9f5f0effcb7faf6f4&quot;&gt;[email&amp;#160;protected]&lt;/a&gt;&lt;script cf-hash='f9e31' type=&quot;text/javascript&quot;&gt;\n/* &lt;![CDATA[ */!function(){try{var t=&quot;currentScript&quot;in document?document.currentScript:function(){for(var t=document.getElementsByTagName(&quot;script&quot;),e=t.length;e--;)if(t[e].getAttribute(&quot;cf-hash&quot;))return t[e]}();if(t&amp;&amp;t.previousSibling){var e,r,n,i,c=t.previousSibling,a=c.getAttribute(&quot;data-cfemail&quot;);if(a){for(e=&quot;&quot;,r=parseInt(a.substr(0,2),16),n=2;a.length-n;n+=2)i=parseInt(a.substr(n,2),16)^r,e+=String.fromCharCode(i);e=document.createTextNode(e),c.parentNode.replaceChild(e,c)}}}catch(u){}}();/* ]]&gt; */&lt;/script&gt; or MSN add me.\n\n\n\n::We are always looking for friends with unreleased DVD's, Screeners, R5's, Audio, Cams, Silvers,\n\n...and any other good sources you may have to offer - contact us: &lt;a class=&quot;__cf_email__&quot; href=&quot;/cdn-cgi/l/email-protection&quot; data-cfemail=&quot;4b3f7b332228392e272e2a382e380b233e3823262a222765282426&quot;&gt;[email&amp;#160;protected]&lt;/a&gt;&lt;script cf-hash='f9e31' type=&quot;text/javascript&quot;&gt;\n/* &lt;![CDATA[ */!function(){try{var t=&quot;currentScript&quot;in document?document.currentScript:function(){for(var t=document.getElementsByTagName(&quot;script&quot;),e=t.length;e--;)if(t[e].getAttribute(&quot;cf-hash&quot;))return t[e]}();if(t&amp;&amp;t.previousSibling){var e,r,n,i,c=t.previousSibling,a=c.getAttribute(&quot;data-cfemail&quot;);if(a){for(e=&quot;&quot;,r=parseInt(a.substr(0,2),16),n=2;a.length-n;n+=2)i=parseInt(a.substr(n,2),16)^r,e+=String.fromCharCode(i);e=document.createTextNode(e),c.parentNode.replaceChild(e,c)}}}catch(u){}}();/* ]]&gt; */&lt;/script&gt;\n\n\n\n:::::::::::::::::::::::::::::::::::: Respect To :::::::::::::::::::::::::::::::::::::\n\n::IMAGiNE,FLAWL3SS,Hive-CM8,DiGiTALiNK,Tranz,Vik,OneTwo,Joey,bob,&amp; our friends on utn and PA::\n\n&quot;and to all of you who support us, Thank-You&quot;\n &lt;a href=&quot;\nhttp://www.leetleech.org/images/11170434250914396118.png&quot; rel=&quot;nofollow&quot; target=&quot;_NEW&quot;&gt;\nhttp://www.leetleech.org/images/11170434250914396118.png&lt;/a&gt;\n &lt;a href=&quot;\nhttp://www.leetleech.org/images/44487124570969309356.png&quot; rel=&quot;nofollow&quot; target=&quot;_NEW&quot;&gt;\nhttp://www.leetleech.org/images/44487124570969309356.png&lt;/a&gt;\n &lt;a href=&quot;\nhttp://www.leetleech.org/images/99354420697494456576.png&quot; rel=&quot;nofollow&quot; target=&quot;_NEW&quot;&gt;\nhttp://www.leetleech.org/images/99354420697494456576.png&lt;/a&gt;\n &lt;a href=&quot;\nhttp://www.leetleech.org/images/99382491262570104768.png&quot; rel=&quot;nofollow&quot; target=&quot;_NEW&quot;&gt;\nhttp://www.leetleech.org/images/99382491262570104768.png&lt;/a&gt;\n &lt;a href=&quot;\nhttp://www.leetleech.org/images/91852884005219798430.png&quot; rel=&quot;nofollow&quot; target=&quot;_NEW&quot;&gt;\nhttp://www.leetleech.org/images/91852884005219798430.png&lt;/a&gt;","torrent":{"xt":"urn:btih:e5c93f23d386fe006b207ef6602acb129c65f53d","amp;dn":"The.Green.Hornet.2010.TS.XViD-T0XiC-iNK","amp;tr":["udp%3A%2F%2Ftracker.openbittorrent.com%3A80","udp%3A%2F%2Fopen.demonii.com%3A1337","udp%3A%2F%2Ftracker.coppersurfer.tk%3A6969","udp%3A%2F%2Fexodus.desync.com%3A6969"],"infoHash":"e5c93f23d386fe006b207ef6602acb129c65f53d","infoHashBuffer":{"type":"Buffer","data":[229,201,63,35,211,134,254,0,107,32,126,246,96,42,203,18,156,101,245,61]},"announce":[],"urlList":[]}}